<?xml version="1.0" encoding="UTF-8" standalone="no"?>
<!-- Created with Inkscape (http://www.inkscape.org/) -->

<svg
   xmlns:dc="http://purl.org/dc/elements/1.1/"
   xmlns:cc="http://creativecommons.org/ns#"
   xmlns:rdf="http://www.w3.org/1999/02/22-rdf-syntax-ns#"
   xmlns:svg="http://www.w3.org/2000/svg"
   xmlns="http://www.w3.org/2000/svg"
   xmlns:sodipodi="http://sodipodi.sourceforge.net/DTD/sodipodi-0.dtd"
   xmlns:inkscape="http://www.inkscape.org/namespaces/inkscape"
   width="403.93701"
   height="223.22835"
   id="svg2"
   version="1.1"
   inkscape:version="0.48.1 r9760"
   sodipodi:docname="dragonsden.svg"
   style="display:inline">
  <defs
     id="defs4" />
  <sodipodi:namedview
     id="base"
     pagecolor="#ffffff"
     bordercolor="#666666"
     borderopacity="1.0"
     inkscape:pageopacity="0.0"
     inkscape:pageshadow="2"
     inkscape:zoom="1.979899"
     inkscape:cx="160.99875"
     inkscape:cy="87.315455"
     inkscape:document-units="mm"
     inkscape:current-layer="layer1"
     showgrid="false"
     inkscape:window-width="1448"
     inkscape:window-height="943"
     inkscape:window-x="0"
     inkscape:window-y="0"
     inkscape:window-maximized="0"
     units="mm" />
  <metadata
     id="metadata7">
    <rdf:RDF>
      <cc:Work
         rdf:about="">
        <dc:format>image/svg+xml</dc:format>
        <dc:type
           rdf:resource="http://purl.org/dc/dcmitype/StillImage" />
        <dc:title />
      </cc:Work>
    </rdf:RDF>
  </metadata>
  <g
     inkscape:label="outline"
     inkscape:groupmode="layer"
     id="layer1"
     transform="translate(0,-829.13384)"
     style="display:inline">
    <rect
       style="fill:none;stroke:#3c96ff;stroke-width:0.70691907;stroke-miterlimit:4;stroke-opacity:1;stroke-dasharray:none"
       id="rect3801"
       width="403.2301"
       height="222.52142"
       x="0.35345954"
       y="829.4873"
       rx="17.68553" />
  </g>
  <g
     inkscape:groupmode="layer"
     id="layer5"
     inkscape:label="bottom_holes"
     style="display:none"
     transform="translate(0,-829.13384)">
    <path
       transform="matrix(0.77613617,0,0,0.49390483,-59.412191,787.15041)"
       d="m 128.57143,463.07648 c 0,4.33938 -2.23858,7.85714 -5,7.85714 -2.76143,0 -5,-3.51776 -5,-7.85714 0,-4.33938 2.23857,-7.85715 5,-7.85715 2.76142,0 5,3.51777 5,7.85715 z"
       sodipodi:ry="7.8571429"
       sodipodi:rx="5"
       sodipodi:cy="463.07648"
       sodipodi:cx="123.57143"
       id="path3820"
       style="fill:none;stroke:#3c96ff;stroke-width:1.14458537;stroke-miterlimit:4;stroke-opacity:1;stroke-dasharray:none"
       sodipodi:type="arc" />
    <path
       sodipodi:type="arc"
       style="fill:none;stroke:#3c96ff;stroke-width:1.14458537;stroke-miterlimit:4;stroke-opacity:1;stroke-dasharray:none"
       id="path3822"
       sodipodi:cx="123.57143"
       sodipodi:cy="463.07648"
       sodipodi:rx="5"
       sodipodi:ry="7.8571429"
       d="m 128.57143,463.07648 c 0,4.33938 -2.23858,7.85714 -5,7.85714 -2.76143,0 -5,-3.51776 -5,-7.85714 0,-4.33938 2.23857,-7.85715 5,-7.85715 2.76142,0 5,3.51777 5,7.85715 z"
       transform="matrix(0.77613617,0,0,0.49390483,-59.412191,631.59923)" />
    <g
       id="g3057"
       transform="translate(15.944885,0)">
      <path
         sodipodi:type="arc"
         style="fill:none;stroke:#3c96ff;stroke-width:1.14458537;stroke-miterlimit:4;stroke-opacity:1;stroke-dasharray:none"
         id="path3824"
         sodipodi:cx="123.57143"
         sodipodi:cy="463.07648"
         sodipodi:rx="5"
         sodipodi:ry="7.8571429"
         d="m 128.57143,463.07648 c 0,4.33938 -2.23858,7.85714 -5,7.85714 -2.76143,0 -5,-3.51776 -5,-7.85714 0,-4.33938 2.23857,-7.85715 5,-7.85715 2.76142,0 5,3.51777 5,7.85715 z"
         transform="matrix(0.77613617,0,0,0.49390483,202.43896,631.59923)" />
      <path
         transform="matrix(0.77613617,0,0,0.49390483,202.43896,787.15041)"
         d="m 128.57143,463.07648 c 0,4.33938 -2.23858,7.85714 -5,7.85714 -2.76143,0 -5,-3.51776 -5,-7.85714 0,-4.33938 2.23857,-7.85715 5,-7.85715 2.76142,0 5,3.51777 5,7.85715 z"
         sodipodi:ry="7.8571429"
         sodipodi:rx="5"
         sodipodi:cy="463.07648"
         sodipodi:cx="123.57143"
         id="path3826"
         style="fill:none;stroke:#3c96ff;stroke-width:1.14458537;stroke-miterlimit:4;stroke-opacity:1;stroke-dasharray:none"
         sodipodi:type="arc" />
    </g>
  </g>
  <g
     inkscape:groupmode="layer"
     id="layer2"
     inkscape:label="dragon"
     style="display:inline"
     transform="translate(0,-829.13384)">
    <rect
       style="fill:none;stroke:#ffb1a7;stroke-width:1.75912237;stroke-miterlimit:4;stroke-opacity:1;stroke-dasharray:none"
       id="rect2985"
       width="366.74481"
       height="186.03615"
       x="18.596096"
       y="847.72992" />
    <g
       id="g3047"
       transform="translate(-0.19412191,0.1941171)">
      <path
         transform="matrix(0.77613617,0,0,0.49390483,-59.412191,787.15041)"
         d="m 128.57143,463.07648 c 0,4.33938 -2.23858,7.85714 -5,7.85714 -2.76143,0 -5,-3.51776 -5,-7.85714 0,-4.33938 2.23857,-7.85715 5,-7.85715 2.76142,0 5,3.51777 5,7.85715 z"
         sodipodi:ry="7.8571429"
         sodipodi:rx="5"
         sodipodi:cy="463.07648"
         sodipodi:cx="123.57143"
         id="path3774"
         style="fill:none;stroke:#ff0000;stroke-width:1.14458537;stroke-miterlimit:4;stroke-opacity:1;stroke-dasharray:none"
         sodipodi:type="arc" />
      <path
         sodipodi:type="arc"
         style="fill:none;stroke:#ff0000;stroke-width:1.14458537;stroke-miterlimit:4;stroke-opacity:1;stroke-dasharray:none"
         id="path3776"
         sodipodi:cx="123.57143"
         sodipodi:cy="463.07648"
         sodipodi:rx="5"
         sodipodi:ry="7.8571429"
         d="m 128.57143,463.07648 c 0,4.33938 -2.23858,7.85714 -5,7.85714 -2.76143,0 -5,-3.51776 -5,-7.85714 0,-4.33938 2.23857,-7.85715 5,-7.85715 2.76142,0 5,3.51777 5,7.85715 z"
         transform="matrix(0.77613617,0,0,0.49390483,-59.412191,631.59923)" />
      <path
         transform="matrix(0.77613617,0,0,0.49390483,218.38384,631.59923)"
         d="m 128.57143,463.07648 c 0,4.33938 -2.23858,7.85714 -5,7.85714 -2.76143,0 -5,-3.51776 -5,-7.85714 0,-4.33938 2.23857,-7.85715 5,-7.85715 2.76142,0 5,3.51777 5,7.85715 z"
         sodipodi:ry="7.8571429"
         sodipodi:rx="5"
         sodipodi:cy="463.07648"
         sodipodi:cx="123.57143"
         id="path3778"
         style="fill:none;stroke:#ff0000;stroke-width:1.14458537;stroke-miterlimit:4;stroke-opacity:1;stroke-dasharray:none"
         sodipodi:type="arc" />
      <path
         sodipodi:type="arc"
         style="fill:none;stroke:#ff0000;stroke-width:1.14458537;stroke-miterlimit:4;stroke-opacity:1;stroke-dasharray:none"
         id="path3780"
         sodipodi:cx="123.57143"
         sodipodi:cy="463.07648"
         sodipodi:rx="5"
         sodipodi:ry="7.8571429"
         d="m 128.57143,463.07648 c 0,4.33938 -2.23858,7.85714 -5,7.85714 -2.76143,0 -5,-3.51776 -5,-7.85714 0,-4.33938 2.23857,-7.85715 5,-7.85715 2.76142,0 5,3.51777 5,7.85715 z"
         transform="matrix(0.77613617,0,0,0.49390483,218.38384,787.15041)" />
    </g>
    <rect
       style="fill:none;stroke:#ff0000;stroke-width:0.74095678;stroke-miterlimit:4;stroke-opacity:1;stroke-dasharray:none"
       id="rect3782"
       width="55.951958"
       height="43.550381"
       x="18.087013"
       y="923.75629" />
    <rect
       style="fill:none;stroke:#ff0000;stroke-width:0.64615422;stroke-miterlimit:4;stroke-opacity:1;stroke-dasharray:none"
       id="rect3792"
       width="20.613688"
       height="186.08612"
       x="253.84669"
       y="847.88208" />
  </g>
  <g
     inkscape:groupmode="layer"
     id="layer3"
     inkscape:label="top holes"
     style="display:none"
     transform="translate(0,-829.13384)">
    <g
       style="display:none"
       transform="translate(0,-2.5390623e-6)"
       id="g3842">
      <rect
         style="fill:none;stroke:#3c96ff;stroke-width:0.70866144;stroke-miterlimit:4;stroke-opacity:1;stroke-dasharray:none"
         id="rect3844"
         width="403.93701"
         height="223.22835"
         x="0.35433072"
         y="828.77948"
         rx="17.716536" />
      <g
         style="stroke:#3c96ff;stroke-opacity:1;display:inline"
         id="g3846">
        <path
           sodipodi:type="arc"
           style="fill:none;stroke:#3c96ff;stroke-width:1.14458537;stroke-miterlimit:4;stroke-opacity:1;stroke-dasharray:none"
           id="path3848"
           sodipodi:cx="123.57143"
           sodipodi:cy="463.07648"
           sodipodi:rx="5"
           sodipodi:ry="7.8571429"
           d="m 128.57143,463.07648 c 0,4.33938 -2.23858,7.85714 -5,7.85714 -2.76143,0 -5,-3.51776 -5,-7.85714 0,-4.33938 2.23857,-7.85715 5,-7.85715 2.76142,0 5,3.51777 5,7.85715 z"
           transform="matrix(0.77613617,0,0,0.49390483,-59.412191,787.15041)" />
        <path
           transform="matrix(0.77613617,0,0,0.49390483,-59.412191,631.59923)"
           d="m 128.57143,463.07648 c 0,4.33938 -2.23858,7.85714 -5,7.85714 -2.76143,0 -5,-3.51776 -5,-7.85714 0,-4.33938 2.23857,-7.85715 5,-7.85715 2.76142,0 5,3.51777 5,7.85715 z"
           sodipodi:ry="7.8571429"
           sodipodi:rx="5"
           sodipodi:cy="463.07648"
           sodipodi:cx="123.57143"
           id="path3850"
           style="fill:none;stroke:#3c96ff;stroke-width:1.14458537;stroke-miterlimit:4;stroke-opacity:1;stroke-dasharray:none"
           sodipodi:type="arc" />
        <path
           sodipodi:type="arc"
           style="fill:none;stroke:#3c96ff;stroke-width:1.14458537;stroke-miterlimit:4;stroke-opacity:1;stroke-dasharray:none"
           id="path3852"
           sodipodi:cx="123.57143"
           sodipodi:cy="463.07648"
           sodipodi:rx="5"
           sodipodi:ry="7.8571429"
           d="m 128.57143,463.07648 c 0,4.33938 -2.23858,7.85714 -5,7.85714 -2.76143,0 -5,-3.51776 -5,-7.85714 0,-4.33938 2.23857,-7.85715 5,-7.85715 2.76142,0 5,3.51777 5,7.85715 z"
           transform="matrix(0.77613617,0,0,0.49390483,200.66655,631.59923)" />
        <path
           transform="matrix(0.77613617,0,0,0.49390483,200.66655,787.15041)"
           d="m 128.57143,463.07648 c 0,4.33938 -2.23858,7.85714 -5,7.85714 -2.76143,0 -5,-3.51776 -5,-7.85714 0,-4.33938 2.23857,-7.85715 5,-7.85715 2.76142,0 5,3.51777 5,7.85715 z"
           sodipodi:ry="7.8571429"
           sodipodi:rx="5"
           sodipodi:cy="463.07648"
           sodipodi:cx="123.57143"
           id="path3854"
           style="fill:none;stroke:#3c96ff;stroke-width:1.14458537;stroke-miterlimit:4;stroke-opacity:1;stroke-dasharray:none"
           sodipodi:type="arc" />
      </g>
    </g>
    <rect
       y="841.90485"
       x="252.29857"
       height="194.14302"
       width="25.835922"
       id="rect3898"
       style="fill:none;stroke:#3c96ff;stroke-width:0.73888046;stroke-miterlimit:4;stroke-opacity:1;stroke-dasharray:none;display:inline" />
    <path
       style="fill:none;stroke:#3c96ff;stroke-width:0.86540741;stroke-miterlimit:4;stroke-opacity:1;display:inline"
       d="m 0.4327037,923.46417 73.5440443,0 0,45.19759 -73.5440443,0"
       id="rect3901"
       inkscape:connector-curvature="0"
       sodipodi:nodetypes="cccc" />
    <path
       sodipodi:type="arc"
       style="fill:none;stroke:#3c96ff;stroke-width:1.14458537;stroke-miterlimit:4;stroke-opacity:1;stroke-dasharray:none"
       id="path3926"
       sodipodi:cx="123.57143"
       sodipodi:cy="463.07648"
       sodipodi:rx="5"
       sodipodi:ry="7.8571429"
       d="m 128.57143,463.07648 c 0,4.33938 -2.23858,7.85714 -5,7.85714 -2.76143,0 -5,-3.51776 -5,-7.85714 0,-4.33938 2.23857,-7.85715 5,-7.85715 2.76142,0 5,3.51777 5,7.85715 z"
       transform="matrix(0.77613617,0,0,0.49390483,-59.606313,787.34453)" />
    <path
       transform="matrix(0.77613617,0,0,0.49390483,-59.606313,631.79335)"
       d="m 128.57143,463.07648 c 0,4.33938 -2.23858,7.85714 -5,7.85714 -2.76143,0 -5,-3.51776 -5,-7.85714 0,-4.33938 2.23857,-7.85715 5,-7.85715 2.76142,0 5,3.51777 5,7.85715 z"
       sodipodi:ry="7.8571429"
       sodipodi:rx="5"
       sodipodi:cy="463.07648"
       sodipodi:cx="123.57143"
       id="path3928"
       style="fill:none;stroke:#3c96ff;stroke-width:1.14458537;stroke-miterlimit:4;stroke-opacity:1;stroke-dasharray:none"
       sodipodi:type="arc" />
    <g
       id="g3017"
       transform="translate(17.523173,0.1941171)">
      <path
         transform="matrix(0.77613617,0,0,0.49390483,200.66655,631.59923)"
         d="m 128.57143,463.07648 c 0,4.33938 -2.23858,7.85714 -5,7.85714 -2.76143,0 -5,-3.51776 -5,-7.85714 0,-4.33938 2.23857,-7.85715 5,-7.85715 2.76142,0 5,3.51777 5,7.85715 z"
         sodipodi:ry="7.8571429"
         sodipodi:rx="5"
         sodipodi:cy="463.07648"
         sodipodi:cx="123.57143"
         id="path3930"
         style="fill:none;stroke:#3c96ff;stroke-width:1.14458537;stroke-miterlimit:4;stroke-opacity:1;stroke-dasharray:none"
         sodipodi:type="arc" />
      <path
         sodipodi:type="arc"
         style="fill:none;stroke:#3c96ff;stroke-width:1.14458537;stroke-miterlimit:4;stroke-opacity:1;stroke-dasharray:none"
         id="path3932"
         sodipodi:cx="123.57143"
         sodipodi:cy="463.07648"
         sodipodi:rx="5"
         sodipodi:ry="7.8571429"
         d="m 128.57143,463.07648 c 0,4.33938 -2.23858,7.85714 -5,7.85714 -2.76143,0 -5,-3.51776 -5,-7.85714 0,-4.33938 2.23857,-7.85715 5,-7.85715 2.76142,0 5,3.51777 5,7.85715 z"
         transform="matrix(0.77613617,0,0,0.49390483,200.66655,787.15041)" />
    </g>
  </g>
</svg>
